<svg width="147" height="25" viewBox="0 0 147 25" fill="none" xmlns="http://www.w3.org/2000/svg">
<path d="M11.8135 4.15723H13.8398V8.96191L21.6016 4.48047L22.1074 5.3584L22.6143 6.23535L13.8398 11.3008L19.0146 8.31445L20.0273 10.0693L15.8662 12.4707L23.6279 16.9521L22.6143 18.707L19.0146 16.6289L18.001 18.3838L13.8398 15.9805V24.9424H11.8135V20.7852H9.78711V15.9805L2.02637 20.4619L1.01367 18.707L4.6123 16.6279L4.10742 15.751L3.60059 14.874L7.76074 12.4707L0 7.99023L1.01367 6.23535L4.61328 8.31348L5.62695 6.55957L9.78711 8.96094V0H11.8135V4.15723Z" fill="white"/>
<path d="M125.381 6.94402H128.145V8.28195C128.452 7.82866 128.905 7.46311 129.505 7.18528C130.119 6.90746 130.791 6.76855 131.523 6.76855C132.59 6.76855 133.526 7.01713 134.33 7.51428C135.134 7.99681 135.756 8.68406 136.194 9.57601C136.633 10.4533 136.852 11.4696 136.852 12.6247C136.852 13.7799 136.618 14.8034 136.15 15.6954C135.697 16.5727 135.054 17.26 134.22 17.7571C133.387 18.2543 132.422 18.5028 131.325 18.5028C130.653 18.5028 130.031 18.3859 129.461 18.1519C128.905 17.9033 128.467 17.5743 128.145 17.1649V22.4289H125.381V6.94402ZM131.018 16.1121C131.603 16.1121 132.122 15.9732 132.575 15.6954C133.043 15.4029 133.402 14.9935 133.65 14.4671C133.899 13.9407 134.023 13.3266 134.023 12.6247C134.023 11.9375 133.899 11.3307 133.65 10.8043C133.402 10.2779 133.043 9.87576 132.575 9.59794C132.122 9.3055 131.596 9.15928 130.996 9.15928C130.411 9.15928 129.885 9.3055 129.417 9.59794C128.949 9.87576 128.591 10.2779 128.342 10.8043C128.094 11.3307 127.969 11.9375 127.969 12.6247C127.969 13.3266 128.094 13.9407 128.342 14.4671C128.591 14.9935 128.942 15.4029 129.395 15.6954C129.863 15.9732 130.404 16.1121 131.018 16.1121Z" fill="white"/>
<path d="M105.654 6.94402H108.418V8.72061C108.739 8.1211 109.178 7.64588 109.734 7.29495C110.289 6.94402 110.947 6.76855 111.708 6.76855C112.614 6.76855 113.367 6.95864 113.967 7.33882C114.566 7.70437 114.998 8.23077 115.261 8.91801C115.583 8.30388 116.072 7.7921 116.73 7.38268C117.403 6.97326 118.171 6.76855 119.033 6.76855C119.838 6.76855 120.547 6.9294 121.161 7.25108C121.775 7.57277 122.243 8.02606 122.565 8.61094C122.901 9.19583 123.069 9.86114 123.069 10.6069V18.3274H120.306V11.3745C120.306 10.6727 120.123 10.1243 119.757 9.72954C119.392 9.32012 118.88 9.11541 118.222 9.11541C117.432 9.11541 116.818 9.42979 116.38 10.0585C115.955 10.6727 115.743 11.4988 115.743 12.537V18.3274H112.98V11.3745C112.98 10.6727 112.797 10.1243 112.432 9.72954C112.066 9.32012 111.554 9.11541 110.896 9.11541C110.384 9.11541 109.938 9.26163 109.558 9.55407C109.178 9.84652 108.893 10.2486 108.703 10.7604C108.513 11.2722 108.418 11.8717 108.418 12.5589V18.3274H105.654V6.94402Z" fill="white"/>
<path d="M98.0223 18.5028C96.911 18.5028 95.9094 18.247 95.0174 17.7352C94.1401 17.2234 93.4528 16.5215 92.9557 15.6296C92.4585 14.7376 92.21 13.736 92.21 12.6247C92.21 11.5134 92.4585 10.5118 92.9557 9.61987C93.4528 8.72792 94.1401 8.03337 95.0174 7.53622C95.9094 7.02444 96.911 6.76855 98.0223 6.76855C99.1336 6.76855 100.128 7.02444 101.005 7.53622C101.897 8.03337 102.592 8.72792 103.089 9.61987C103.586 10.4972 103.835 11.4988 103.835 12.6247C103.835 13.736 103.586 14.7376 103.089 15.6296C102.592 16.5215 101.897 17.2234 101.005 17.7352C100.128 18.247 99.1336 18.5028 98.0223 18.5028ZM98.0223 16.1121C98.6218 16.1121 99.1409 15.9659 99.5795 15.6735C100.033 15.381 100.384 14.9716 100.632 14.4452C100.896 13.9042 101.027 13.2973 101.027 12.6247C101.027 11.9521 100.896 11.3526 100.632 10.8262C100.384 10.2998 100.026 9.89038 99.5576 9.59794C99.1043 9.3055 98.5925 9.15928 98.0223 9.15928C97.4374 9.15928 96.911 9.3055 96.4431 9.59794C95.9898 9.89038 95.6389 10.2998 95.3903 10.8262C95.1563 11.3526 95.0394 11.9521 95.0394 12.6247C95.0394 13.312 95.1563 13.9188 95.3903 14.4452C95.6389 14.9716 95.9898 15.381 96.4431 15.6735C96.8964 15.9659 97.4228 16.1121 98.0223 16.1121Z" fill="white"/>
<path d="M84.0217 18.5028C82.5887 18.5028 81.2727 18.1958 80.0737 17.5816C78.8893 16.9675 77.9388 16.0536 77.2224 14.84C76.5205 13.6117 76.1696 12.1349 76.1696 10.4095C76.1696 8.69867 76.5278 7.23646 77.2443 6.02282C77.9754 4.79456 78.9332 3.87336 80.1176 3.25923C81.3019 2.6451 82.6033 2.33803 84.0217 2.33803C85.2792 2.33803 86.4124 2.56468 87.4213 3.01796C88.4449 3.45663 89.271 4.10732 89.8998 4.97002C90.5432 5.81811 90.938 6.83435 91.0842 8.01874H87.9697C87.8088 7.08292 87.3628 6.3372 86.6317 5.78155C85.9006 5.21129 85.0233 4.92616 83.9997 4.92616C83.0932 4.92616 82.2743 5.13818 81.5432 5.56222C80.8121 5.98626 80.2345 6.61502 79.8105 7.44848C79.3864 8.26732 79.1744 9.25432 79.1744 10.4095C79.1744 11.5646 79.3791 12.5589 79.7885 13.3924C80.2126 14.2259 80.7902 14.8546 81.5213 15.2786C82.2524 15.7027 83.0785 15.9147 83.9997 15.9147C85.0525 15.9147 85.9299 15.6442 86.6317 15.1032C87.3482 14.5475 87.7942 13.7726 87.9697 12.7783H91.1061C90.916 14.0211 90.492 15.0739 89.834 15.9366C89.176 16.7847 88.3425 17.4281 87.3336 17.8668C86.3393 18.2908 85.2353 18.5028 84.0217 18.5028Z" fill="white"/>
<path d="M57.0755 6.94402H59.8391V8.72061C60.1607 8.1211 60.5994 7.64588 61.1551 7.29495C61.7107 6.94402 62.3687 6.76855 63.1291 6.76855C64.0356 6.76855 64.7887 6.95864 65.3882 7.33882C65.9877 7.70437 66.419 8.23077 66.6822 8.91801C67.0039 8.30388 67.4938 7.7921 68.1518 7.38268C68.8244 6.97326 69.592 6.76855 70.4548 6.76855C71.259 6.76855 71.9681 6.9294 72.5823 7.25108C73.1964 7.57277 73.6643 8.02606 73.986 8.61094C74.3223 9.19583 74.4905 9.86114 74.4905 10.6069V18.3274H71.7269V11.3745C71.7269 10.6727 71.5441 10.1243 71.1786 9.72954C70.813 9.32012 70.3012 9.11541 69.6432 9.11541C68.8536 9.11541 68.2395 9.42979 67.8008 10.0585C67.3768 10.6727 67.1648 11.4988 67.1648 12.537V18.3274H64.4012V11.3745C64.4012 10.6727 64.2184 10.1243 63.8528 9.72954C63.4873 9.32012 62.9755 9.11541 62.3175 9.11541C61.8057 9.11541 61.3598 9.26163 60.9796 9.55407C60.5994 9.84652 60.3143 10.2486 60.1242 10.7604C59.9341 11.2722 59.8391 11.8717 59.8391 12.5589V18.3274H57.0755V6.94402Z" fill="white"/>
<path d="M44.3028 6.94401H47.3515L50.3564 14.9277L49.15 18.9634L44.3028 6.94401ZM55.7958 6.94401L51.1021 19.095C50.7073 20.1478 50.1663 20.9959 49.479 21.6393C48.7918 22.2827 47.8487 22.6043 46.6496 22.6043C46.1086 22.6043 45.5822 22.5239 45.0704 22.3631V19.9943C45.4652 20.1405 45.8747 20.2136 46.2987 20.2136C46.7081 20.2136 47.0444 20.1478 47.3076 20.0162C47.5855 19.8846 47.8267 19.6653 48.0314 19.3582C48.2508 19.0658 48.4774 18.6344 48.7114 18.0642L53.0103 6.94401H55.7958Z" fill="white"/>
<path d="M36.2115 18.5028C34.7785 18.5028 33.4771 18.2031 32.3074 17.6036C31.1376 16.9894 30.2018 16.0756 29.4999 14.8619C28.8127 13.6337 28.4691 12.1495 28.4691 10.4095C28.4691 8.7864 28.8127 7.36806 29.4999 6.15442C30.2018 4.92615 31.1449 3.98302 32.3293 3.32503C33.5137 2.66703 34.8297 2.33803 36.2773 2.33803C37.5202 2.33803 38.6461 2.56468 39.655 3.01796C40.6786 3.45663 41.5193 4.1 42.1773 4.94809C42.8353 5.79617 43.2594 6.81241 43.4495 7.99681H40.2253C40.0352 7.06099 39.5746 6.31526 38.8435 5.75962C38.127 5.20398 37.257 4.92616 36.2334 4.92616C35.3269 4.92616 34.508 5.1528 33.7769 5.60608C33.0604 6.04475 32.4975 6.68081 32.088 7.51428C31.6786 8.34774 31.4739 9.3128 31.4739 10.4095C31.4739 11.5061 31.6786 12.4712 32.088 13.3047C32.4975 14.1381 33.075 14.7815 33.8208 15.2348C34.5665 15.6881 35.4292 15.9147 36.4089 15.9147C37.1985 15.9147 37.9003 15.7685 38.5145 15.476C39.1432 15.169 39.6331 14.7522 39.984 14.2259C40.3349 13.6848 40.5397 13.0707 40.5981 12.3835H35.8386V9.99273H43.3837V18.3274H40.6859V16.2656C40.3349 16.9236 39.7427 17.4647 38.9093 17.8887C38.0904 18.2981 37.1912 18.5028 36.2115 18.5028Z" fill="white"/>
<path d="M142.764 2.33803H143.577L144.55 4.594C144.637 4.79087 144.7 4.96354 144.739 5.112C144.778 4.96354 144.841 4.79087 144.928 4.594L145.906 2.33803H146.685V5.82848H146.041V3.96465C146.041 3.75164 146.046 3.56607 146.056 3.40792C146.004 3.55638 145.936 3.72905 145.853 3.92592L145.039 5.82848H144.42L143.597 3.92592C143.509 3.72905 143.442 3.55638 143.393 3.40792C143.403 3.56284 143.408 3.74841 143.408 3.96465V5.82848H142.764V2.33803Z" fill="white"/>
<path d="M140.684 2.90929H139.619V2.33803H142.393V2.90929H141.328V5.82848H140.684V2.90929Z" fill="white"/>
</svg>
