<svg width="24" height="25" viewBox="0 0 24 25" fill="none" xmlns="http://www.w3.org/2000/svg">
<path d="M11.8135 4.15723H13.8398V8.96191L21.6016 4.48047L22.1074 5.3584L22.6143 6.23535L13.8398 11.3008L19.0146 8.31445L20.0273 10.0693L15.8662 12.4707L23.6279 16.9521L22.6143 18.707L19.0146 16.6289L18.001 18.3838L13.8398 15.9805V24.9424H11.8135V20.7852H9.78711V15.9805L2.02637 20.4619L1.01367 18.707L4.6123 16.6279L4.10742 15.751L3.60059 14.874L7.76074 12.4707L0 7.99023L1.01367 6.23535L4.61328 8.31348L5.62695 6.55957L9.78711 8.96094V0H11.8135V4.15723Z" fill="#065EE3"/>
</svg>
