<svg width="119" height="21" viewBox="0 0 119 21" fill="none" xmlns="http://www.w3.org/2000/svg">
<path d="M96.9122 4.60599H99.6758V5.94391C99.9828 5.49063 100.436 5.12507 101.036 4.84725C101.65 4.56943 102.322 4.43052 103.053 4.43052C104.121 4.43052 105.057 4.6791 105.861 5.17625C106.665 5.65878 107.287 6.34603 107.725 7.23798C108.164 8.11531 108.383 9.13155 108.383 10.2867C108.383 11.4418 108.149 12.4654 107.681 13.3574C107.228 14.2347 106.585 14.9219 105.751 15.4191C104.918 15.9162 103.953 16.1648 102.856 16.1648C102.183 16.1648 101.562 16.0478 100.992 15.8139C100.436 15.5653 99.9975 15.2363 99.6758 14.8269V20.0909H96.9122V4.60599ZM102.549 13.7741C103.134 13.7741 103.653 13.6352 104.106 13.3574C104.574 13.0649 104.932 12.6555 105.181 12.1291C105.43 11.6027 105.554 10.9886 105.554 10.2867C105.554 9.59946 105.43 8.99264 105.181 8.46624C104.932 7.93984 104.574 7.53773 104.106 7.25991C103.653 6.96747 103.127 6.82124 102.527 6.82124C101.942 6.82124 101.416 6.96747 100.948 7.25991C100.48 7.53773 100.122 7.93984 99.8732 8.46624C99.6246 8.99264 99.5003 9.59946 99.5003 10.2867C99.5003 10.9886 99.6246 11.6027 99.8732 12.1291C100.122 12.6555 100.473 13.0649 100.926 13.3574C101.394 13.6352 101.935 13.7741 102.549 13.7741Z" fill="black"/>
<path d="M77.1851 4.60599H79.9487V6.38258C80.2704 5.78307 80.7091 5.30785 81.2647 4.95692C81.8204 4.60599 82.4783 4.43052 83.2387 4.43052C84.1453 4.43052 84.8983 4.62061 85.4978 5.00078C86.0973 5.36634 86.5287 5.89274 86.7919 6.57998C87.1136 5.96585 87.6034 5.45407 88.2614 5.04465C88.934 4.63523 89.7017 4.43052 90.5644 4.43052C91.3686 4.43052 92.0778 4.59136 92.6919 4.91305C93.3061 5.23474 93.774 5.68803 94.0957 6.27291C94.432 6.8578 94.6001 7.52311 94.6001 8.26884V15.9893H91.8365V9.0365C91.8365 8.33464 91.6537 7.78631 91.2882 7.39151C90.9226 6.98209 90.4109 6.77738 89.7529 6.77738C88.9633 6.77738 88.3491 7.09175 87.9105 7.72051C87.4864 8.33464 87.2744 9.16079 87.2744 10.199V15.9893H84.5108V9.0365C84.5108 8.33464 84.328 7.78631 83.9625 7.39151C83.5969 6.98209 83.0852 6.77738 82.4272 6.77738C81.9154 6.77738 81.4694 6.9236 81.0892 7.21604C80.7091 7.50849 80.4239 7.9106 80.2338 8.42237C80.0438 8.93415 79.9487 9.53366 79.9487 10.2209V15.9893H77.1851V4.60599Z" fill="black"/>
<path d="M69.5532 16.1648C68.4419 16.1648 67.4403 15.9089 66.5484 15.3971C65.671 14.8854 64.9838 14.1835 64.4866 13.2916C63.9895 12.3996 63.7409 11.398 63.7409 10.2867C63.7409 9.17541 63.9895 8.17379 64.4866 7.28184C64.9838 6.38989 65.671 5.69534 66.5484 5.19818C67.4403 4.68641 68.4419 4.43052 69.5532 4.43052C70.6645 4.43052 71.6588 4.68641 72.5361 5.19818C73.4281 5.69534 74.1226 6.38989 74.6198 7.28184C75.117 8.15917 75.3655 9.16079 75.3655 10.2867C75.3655 11.398 75.117 12.3996 74.6198 13.2916C74.1226 14.1835 73.4281 14.8854 72.5361 15.3971C71.6588 15.9089 70.6645 16.1648 69.5532 16.1648ZM69.5532 13.7741C70.1527 13.7741 70.6718 13.6279 71.1105 13.3354C71.5638 13.043 71.9147 12.6336 72.1633 12.1072C72.4265 11.5661 72.5581 10.9593 72.5581 10.2867C72.5581 9.61408 72.4265 9.01457 72.1633 8.48817C71.9147 7.96177 71.5564 7.55235 71.0885 7.25991C70.6353 6.96747 70.1235 6.82124 69.5532 6.82124C68.9683 6.82124 68.4419 6.96747 67.974 7.25991C67.5207 7.55235 67.1698 7.96177 66.9212 8.48817C66.6873 9.01457 66.5703 9.61408 66.5703 10.2867C66.5703 10.9739 66.6873 11.5808 66.9212 12.1072C67.1698 12.6336 67.5207 13.043 67.974 13.3354C68.4273 13.6279 68.9537 13.7741 69.5532 13.7741Z" fill="black"/>
<path d="M55.5526 16.1648C54.1196 16.1648 52.8036 15.8577 51.6046 15.2436C50.4202 14.6295 49.4698 13.7156 48.7533 12.502C48.0514 11.2737 47.7005 9.79685 47.7005 8.07143C47.7005 6.36064 48.0588 4.89843 48.7752 3.68479C49.5063 2.45652 50.4641 1.53533 51.6485 0.921198C52.8329 0.307067 54.1343 2.14577e-06 55.5526 2.14577e-06C56.8101 2.14577e-06 57.9433 0.226646 58.9523 0.679933C59.9758 1.1186 60.802 1.76928 61.4307 2.63199C62.0741 3.48008 62.4689 4.49632 62.6151 5.68071H59.5006C59.3398 4.74489 58.8938 3.99916 58.1627 3.44352C57.4316 2.87326 56.5542 2.58813 55.5307 2.58813C54.6241 2.58813 53.8053 2.80015 53.0742 3.22419C52.343 3.64823 51.7655 4.27698 51.3414 5.11045C50.9174 5.92929 50.7054 6.91628 50.7054 8.07143C50.7054 9.22659 50.9101 10.2209 51.3195 11.0544C51.7435 11.8878 52.3211 12.5166 53.0522 12.9406C53.7833 13.3647 54.6095 13.5767 55.5307 13.5767C56.5835 13.5767 57.4608 13.3062 58.1627 12.7652C58.8792 12.2095 59.3251 11.4345 59.5006 10.4402H62.6371C62.447 11.6831 62.0229 12.7359 61.3649 13.5986C60.7069 14.4467 59.8735 15.0901 58.8645 15.5287C57.8702 15.9528 56.7663 16.1648 55.5526 16.1648Z" fill="black"/>
<path d="M28.6064 4.60599H31.37V6.38258C31.6917 5.78307 32.1304 5.30785 32.686 4.95692C33.2416 4.60599 33.8996 4.43052 34.66 4.43052C35.5666 4.43052 36.3196 4.62061 36.9191 5.00078C37.5186 5.36634 37.95 5.89274 38.2132 6.57998C38.5349 5.96585 39.0247 5.45407 39.6827 5.04465C40.3553 4.63523 41.123 4.43052 41.9857 4.43052C42.7899 4.43052 43.4991 4.59136 44.1132 4.91305C44.7274 5.23474 45.1953 5.68803 45.517 6.27291C45.8533 6.8578 46.0214 7.52311 46.0214 8.26884V15.9893H43.2578V9.0365C43.2578 8.33464 43.0751 7.78631 42.7095 7.39151C42.3439 6.98209 41.8322 6.77738 41.1742 6.77738C40.3846 6.77738 39.7704 7.09175 39.3318 7.72051C38.9077 8.33464 38.6957 9.16079 38.6957 10.199V15.9893H35.9321V9.0365C35.9321 8.33464 35.7493 7.78631 35.3838 7.39151C35.0182 6.98209 34.5065 6.77738 33.8485 6.77738C33.3367 6.77738 32.8907 6.9236 32.5105 7.21604C32.1304 7.50849 31.8452 7.9106 31.6551 8.42237C31.4651 8.93415 31.37 9.53366 31.37 10.2209V15.9893H28.6064V4.60599Z" fill="black"/>
<path d="M15.8337 4.60598H18.8825L21.8873 12.5897L20.681 16.6254L15.8337 4.60598ZM27.3268 4.60598L22.633 16.757C22.2382 17.8098 21.6972 18.6579 21.01 19.3013C20.3227 19.9446 19.3796 20.2663 18.1806 20.2663C17.6396 20.2663 17.1132 20.1859 16.6014 20.0251V17.6563C16.9962 17.8025 17.4056 17.8756 17.8297 17.8756C18.2391 17.8756 18.5754 17.8098 18.8386 17.6782C19.1164 17.5466 19.3577 17.3273 19.5624 17.0202C19.7817 16.7278 20.0084 16.2964 20.2423 15.7261L24.5412 4.60598H27.3268Z" fill="black"/>
<path d="M7.74244 16.1648C6.30946 16.1648 5.00809 15.865 3.83832 15.2655C2.66854 14.6514 1.73273 13.7375 1.03086 12.5239C0.343621 11.2956 0 9.81147 0 8.07143C0 6.44837 0.343621 5.03002 1.03086 3.81639C1.73273 2.58812 2.67586 1.64499 3.86025 0.986996C5.04465 0.328999 6.36064 0 7.80824 0C9.05112 0 10.177 0.226644 11.186 0.679931C12.2095 1.1186 13.0503 1.76197 13.7083 2.61006C14.3663 3.45814 14.7903 4.47438 14.9804 5.65878H11.7562C11.5661 4.72296 11.1055 3.97723 10.3744 3.42159C9.65794 2.86594 8.78792 2.58812 7.76437 2.58812C6.8578 2.58812 6.03895 2.81477 5.30785 3.26805C4.59136 3.70672 4.0284 4.34278 3.61898 5.17625C3.20956 6.00971 3.00485 6.97477 3.00485 8.07143C3.00485 9.1681 3.20956 10.1332 3.61898 10.9666C4.0284 11.8001 4.60598 12.4435 5.35171 12.8967C6.09744 13.35 6.96015 13.5767 7.93983 13.5767C8.72943 13.5767 9.43129 13.4305 10.0454 13.138C10.6742 12.8309 11.164 12.4142 11.515 11.8878C11.8659 11.3468 12.0706 10.7327 12.1291 10.0454H7.36957V7.6547H14.9146V15.9893H12.2168V13.9276C11.8659 14.5856 11.2737 15.1266 10.4402 15.5507C9.62138 15.9601 8.72212 16.1648 7.74244 16.1648Z" fill="black"/>
<path d="M114.295 2.14577e-06H115.108L116.081 2.25597C116.168 2.45284 116.231 2.6255 116.27 2.77397C116.309 2.6255 116.372 2.45284 116.459 2.25597L117.437 2.14577e-06H118.216V3.49045H117.572V1.62662C117.572 1.41361 117.577 1.22803 117.587 1.06989C117.535 1.21835 117.467 1.39102 117.383 1.58789L116.57 3.49045H115.951L115.128 1.58789C115.04 1.39102 114.973 1.21835 114.924 1.06989C114.934 1.22481 114.939 1.41038 114.939 1.62662V3.49045H114.295V2.14577e-06Z" fill="black"/>
<path d="M112.215 0.571254H111.15V2.14577e-06H113.924V0.571254H112.859V3.49045H112.215V0.571254Z" fill="black"/>
</svg>
